# ProBuilder 6.1.2
# https://unity3d.com/unity/features/worldbuilding/probuilder
# 18.09.2026 19:50:42

mtllib ./Collider.mtl
o Collider

g Cube (1)
v -2.192347 -0.5 0.5
v -2.192347 -0.5 -5.5
v -2.192347 -0.4674599 0.5
v -2.192347 5.450729 -5.5
v 2 -0.5 -5.5
v 2 -0.5 0.5
v 2 5.450729 -5.5
v 2 -0.4674599 0.5
v 1.813761 5.450729 -5.5
v 1.829299 -0.4674599 0.5
v 1.813761 6.774009 -5.5
v 2 6.774009 -5.5
v 2 0.8558202 0.5
v 1.829299 0.8558202 0.5

vt 6 -4.950729
vt 0 -4.950729
vt 6 -4.918189
vt 0 1
vt 6 1
vt 0 -4.918189
vt 4.192347 -5
vt 0 -5
vt 4.192347 1
vt 2.192347 -0.5
vt -2 -0.5
vt -2 5.450729
vt -1.813761 5.450729
vt 2.192347 5.450729
vt 2 -0.5
vt -2.192347 -0.5
vt -2.192347 -0.4674599
vt 1.829299 -0.4674599
vt 2 -0.4674599
vt -1.813761 -8.672647
vt -2 -8.672647
vt -2 -0.2450162
vt -1.829299 -0.2450162
vt -1.829299 0.6842393
vt 2.192347 0.6842393
vt 2.192347 -7.743392
vt -1.813761 -7.743392
vt -1.813761 6.774009
vt -2 6.774009
vt 0.5047356 -0.4674599
vt -5.495285 5.450729
vt 0.5047356 0.8558202
vt -5.495285 6.774009
vt 5.5 5.450729
vt -0.5 -0.4674599
vt 5.5 6.774009
vt -0.5 0.8558202
vt 2 0.8558202
vt 1.829299 0.8558202

vn -1 0 0
vn 1 0 0
vn 0 -1 0
vn 0 0 -1
vn 0 0 1
vn 0 0.7119438 0.7022364
vn -0.9999967 0 0.002589694

usemtl ProBuilderDefault
f 10/18/5 6/15/5 8/19/5
f 6/15/5 10/18/5 1/16/5
f 10/18/5 3/17/5 1/16/5
f 2/10/4 4/14/4 9/13/4
f 2/10/4 9/13/4 5/11/4
f 7/12/4 5/11/4 9/13/4
f 4/4/1 2/2/1 1/1/1
f 1/1/1 3/3/1 4/4/1
f 8/6/2 6/2/2 5/1/2
f 5/1/2 7/5/2 8/6/2
f 1/4/3 2/8/3 5/7/3
f 5/7/3 6/9/3 1/4/3
f 13/22/6 12/21/6 11/20/6
f 11/20/6 14/23/6 13/22/6
f 9/27/6 4/26/6 3/25/6
f 3/25/6 10/24/6 9/27/6
f 12/29/4 7/12/4 9/13/4
f 9/13/4 11/28/4 12/29/4
f 11/33/7 9/31/7 10/30/7
f 10/30/7 14/32/7 11/33/7
f 13/37/2 8/35/2 7/34/2
f 7/34/2 12/36/2 13/37/2
f 14/39/5 10/18/5 8/19/5
f 8/19/5 13/38/5 14/39/5

